G04 Layer_Color=32896*
%FSLAX43Y43*%
%MOMM*%
G71*
G01*
G75*
%ADD10C,0.200*%
G36*
X238191Y60309D02*
X238230Y60305D01*
X238262Y60302D01*
X238288Y60300D01*
X238306Y60296D01*
X238319Y60292D01*
X238328Y60291D01*
X238330D01*
X238349Y60283D01*
X238367Y60272D01*
X238384Y60259D01*
X238399Y60246D01*
X238412Y60233D01*
X238421Y60222D01*
X238428Y60215D01*
X238430Y60211D01*
X238440Y60198D01*
X238447Y60183D01*
X238464Y60150D01*
X238478Y60115D01*
X238493Y60080D01*
X238504Y60048D01*
X238510Y60033D01*
X238514Y60022D01*
X238517Y60013D01*
X238519Y60004D01*
X238521Y60000D01*
Y59998D01*
X238528Y59972D01*
X238536Y59948D01*
X238543Y59926D01*
X238551Y59907D01*
X238556Y59891D01*
X238562Y59876D01*
X238567Y59863D01*
X238573Y59850D01*
X238580Y59833D01*
X238586Y59822D01*
X238590Y59815D01*
X238591Y59813D01*
X238602Y59800D01*
X238617Y59791D01*
X238632Y59783D01*
X238647Y59778D01*
X238662Y59772D01*
X238673Y59770D01*
X238680Y59768D01*
X238684D01*
Y60302D01*
X238891D01*
Y59050D01*
X238684D01*
Y59596D01*
X238660Y59594D01*
X238639Y59587D01*
X238623Y59580D01*
X238608Y59570D01*
X238599Y59561D01*
X238590Y59552D01*
X238586Y59546D01*
X238584Y59544D01*
X238571Y59524D01*
X238558Y59498D01*
X238543Y59468D01*
X238532Y59441D01*
X238521Y59415D01*
X238512Y59393D01*
X238508Y59383D01*
X238506Y59378D01*
X238504Y59374D01*
Y59372D01*
X238380Y59050D01*
X238136D01*
X238277Y59391D01*
X238288Y59417D01*
X238299Y59443D01*
X238308Y59465D01*
X238319Y59487D01*
X238328Y59506D01*
X238338Y59522D01*
X238352Y59552D01*
X238365Y59574D01*
X238375Y59589D01*
X238380Y59598D01*
X238382Y59602D01*
X238399Y59624D01*
X238417Y59644D01*
X238436Y59659D01*
X238452Y59672D01*
X238467Y59681D01*
X238480Y59689D01*
X238488Y59693D01*
X238491Y59694D01*
X238473Y59709D01*
X238458Y59722D01*
X238445Y59735D01*
X238434Y59746D01*
X238427Y59755D01*
X238421Y59763D01*
X238419Y59768D01*
X238417Y59770D01*
X238408Y59789D01*
X238399Y59811D01*
X238388Y59837D01*
X238380Y59861D01*
X238371Y59885D01*
X238365Y59905D01*
X238364Y59913D01*
X238362Y59918D01*
X238360Y59922D01*
Y59924D01*
X238347Y59965D01*
X238334Y59998D01*
X238325Y60026D01*
X238314Y60046D01*
X238306Y60063D01*
X238301Y60074D01*
X238297Y60080D01*
X238295Y60081D01*
X238280Y60096D01*
X238264Y60105D01*
X238243Y60113D01*
X238225Y60118D01*
X238206Y60122D01*
X238191Y60124D01*
X238147D01*
Y60313D01*
X238191Y60309D01*
D02*
G37*
G36*
X233364Y60063D02*
X232918D01*
X232968Y59981D01*
X233010Y59896D01*
X233049Y59817D01*
X233066Y59778D01*
X233081Y59743D01*
X233094Y59707D01*
X233107Y59678D01*
X233116Y59650D01*
X233125Y59626D01*
X233131Y59607D01*
X233136Y59593D01*
X233138Y59585D01*
X233140Y59581D01*
X233168Y59483D01*
X233188Y59387D01*
X233196Y59341D01*
X233203Y59296D01*
X233209Y59256D01*
X233214Y59217D01*
X233218Y59181D01*
X233222Y59148D01*
X233223Y59120D01*
X233225Y59096D01*
Y59076D01*
X233227Y59061D01*
Y59054D01*
Y59050D01*
X233038D01*
X233036Y59115D01*
X233031Y59181D01*
X233023Y59246D01*
X233020Y59276D01*
X233014Y59306D01*
X233010Y59331D01*
X233007Y59356D01*
X233003Y59378D01*
X232999Y59396D01*
X232996Y59411D01*
X232994Y59422D01*
X232992Y59430D01*
Y59431D01*
X232973Y59509D01*
X232951Y59581D01*
X232940Y59617D01*
X232931Y59650D01*
X232920Y59680D01*
X232909Y59707D01*
X232899Y59733D01*
X232890Y59757D01*
X232881Y59778D01*
X232875Y59794D01*
X232868Y59807D01*
X232864Y59818D01*
X232860Y59824D01*
Y59826D01*
X232844Y59859D01*
X232829Y59891D01*
X232812Y59920D01*
X232798Y59948D01*
X232783Y59972D01*
X232770Y59996D01*
X232757Y60017D01*
X232744Y60037D01*
X232733Y60054D01*
X232723Y60068D01*
X232714Y60080D01*
X232707Y60091D01*
X232699Y60098D01*
X232696Y60105D01*
X232692Y60107D01*
Y60109D01*
Y60285D01*
X233364D01*
Y60063D01*
D02*
G37*
G36*
X230929Y59050D02*
X230733D01*
Y59291D01*
X230929D01*
Y59050D01*
D02*
G37*
G36*
X238093Y60091D02*
X237788D01*
Y59050D01*
X237580D01*
Y60091D01*
X237277D01*
Y60302D01*
X238093D01*
Y60091D01*
D02*
G37*
G36*
X235758Y60063D02*
X235312D01*
X235362Y59981D01*
X235405Y59896D01*
X235444Y59817D01*
X235460Y59778D01*
X235475Y59743D01*
X235488Y59707D01*
X235501Y59678D01*
X235510Y59650D01*
X235519Y59626D01*
X235525Y59607D01*
X235531Y59593D01*
X235532Y59585D01*
X235534Y59581D01*
X235562Y59483D01*
X235582Y59387D01*
X235590Y59341D01*
X235597Y59296D01*
X235603Y59256D01*
X235608Y59217D01*
X235612Y59181D01*
X235616Y59148D01*
X235618Y59120D01*
X235619Y59096D01*
Y59076D01*
X235621Y59061D01*
Y59054D01*
Y59050D01*
X235432D01*
X235431Y59115D01*
X235425Y59181D01*
X235418Y59246D01*
X235414Y59276D01*
X235408Y59306D01*
X235405Y59331D01*
X235401Y59356D01*
X235397Y59378D01*
X235394Y59396D01*
X235390Y59411D01*
X235388Y59422D01*
X235386Y59430D01*
Y59431D01*
X235368Y59509D01*
X235345Y59581D01*
X235334Y59617D01*
X235325Y59650D01*
X235314Y59680D01*
X235303Y59707D01*
X235294Y59733D01*
X235284Y59757D01*
X235275Y59778D01*
X235269Y59794D01*
X235262Y59807D01*
X235258Y59818D01*
X235255Y59824D01*
Y59826D01*
X235238Y59859D01*
X235223Y59891D01*
X235207Y59920D01*
X235192Y59948D01*
X235177Y59972D01*
X235164Y59996D01*
X235151Y60017D01*
X235138Y60037D01*
X235127Y60054D01*
X235118Y60068D01*
X235108Y60080D01*
X235101Y60091D01*
X235094Y60098D01*
X235090Y60105D01*
X235086Y60107D01*
Y60109D01*
Y60285D01*
X235758D01*
Y60063D01*
D02*
G37*
G36*
X236116Y59050D02*
X235919D01*
Y59291D01*
X236116D01*
Y59050D01*
D02*
G37*
G36*
X237138D02*
X236638D01*
X236603Y59052D01*
X236569Y59056D01*
X236540Y59061D01*
X236512Y59069D01*
X236488Y59076D01*
X236466Y59085D01*
X236445Y59096D01*
X236427Y59107D01*
X236412Y59117D01*
X236397Y59128D01*
X236386Y59137D01*
X236377Y59146D01*
X236371Y59152D01*
X236366Y59157D01*
X236362Y59161D01*
Y59163D01*
X236347Y59185D01*
X236334Y59207D01*
X236316Y59252D01*
X236301Y59294D01*
X236290Y59335D01*
X236288Y59354D01*
X236284Y59372D01*
X236282Y59387D01*
Y59400D01*
X236280Y59409D01*
Y59417D01*
Y59422D01*
Y59424D01*
X236282Y59456D01*
X236284Y59485D01*
X236295Y59541D01*
X236303Y59565D01*
X236310Y59587D01*
X236319Y59607D01*
X236329Y59626D01*
X236338Y59643D01*
X236347Y59657D01*
X236355Y59670D01*
X236362Y59681D01*
X236368Y59689D01*
X236373Y59694D01*
X236375Y59698D01*
X236377Y59700D01*
X236395Y59718D01*
X236416Y59735D01*
X236436Y59748D01*
X236458Y59759D01*
X236501Y59778D01*
X236543Y59791D01*
X236580Y59798D01*
X236597Y59800D01*
X236610Y59802D01*
X236621Y59804D01*
X236930D01*
Y60091D01*
X236369D01*
Y60302D01*
X237138D01*
Y59050D01*
D02*
G37*
G36*
X233855Y60304D02*
X233879Y60302D01*
X233923Y60292D01*
X233962Y60278D01*
X233994Y60261D01*
X234020Y60244D01*
X234038Y60231D01*
X234044Y60224D01*
X234049Y60220D01*
X234051Y60218D01*
X234053Y60217D01*
X234068Y60200D01*
X234081Y60181D01*
X234101Y60144D01*
X234116Y60105D01*
X234125Y60067D01*
X234133Y60035D01*
X234134Y60020D01*
Y60007D01*
X234136Y59998D01*
Y59991D01*
Y59985D01*
Y59983D01*
X234134Y59950D01*
X234131Y59920D01*
X234125Y59894D01*
X234118Y59872D01*
X234112Y59854D01*
X234107Y59839D01*
X234103Y59831D01*
X234101Y59828D01*
X234086Y59805D01*
X234068Y59785D01*
X234051Y59767D01*
X234033Y59752D01*
X234016Y59741D01*
X234003Y59733D01*
X233996Y59728D01*
X233992Y59726D01*
X234021Y59709D01*
X234047Y59689D01*
X234070Y59668D01*
X234086Y59648D01*
X234101Y59630D01*
X234112Y59615D01*
X234118Y59605D01*
X234120Y59604D01*
Y59602D01*
X234134Y59570D01*
X234144Y59537D01*
X234151Y59506D01*
X234157Y59476D01*
X234160Y59448D01*
X234162Y59428D01*
Y59420D01*
Y59415D01*
Y59411D01*
Y59409D01*
X234160Y59378D01*
X234158Y59348D01*
X234147Y59293D01*
X234140Y59268D01*
X234133Y59244D01*
X234123Y59224D01*
X234114Y59206D01*
X234105Y59189D01*
X234096Y59174D01*
X234088Y59161D01*
X234081Y59150D01*
X234075Y59143D01*
X234070Y59137D01*
X234068Y59133D01*
X234066Y59131D01*
X234047Y59113D01*
X234027Y59098D01*
X234007Y59085D01*
X233986Y59072D01*
X233946Y59054D01*
X233907Y59043D01*
X233873Y59035D01*
X233859Y59033D01*
X233846Y59031D01*
X233836Y59030D01*
X233821D01*
X233786Y59031D01*
X233755Y59037D01*
X233725Y59044D01*
X233701Y59054D01*
X233681Y59061D01*
X233664Y59069D01*
X233655Y59074D01*
X233651Y59076D01*
X233623Y59094D01*
X233601Y59117D01*
X233581Y59139D01*
X233564Y59161D01*
X233549Y59181D01*
X233540Y59196D01*
X233534Y59207D01*
X233533Y59209D01*
Y59211D01*
X233518Y59246D01*
X233507Y59281D01*
X233499Y59315D01*
X233494Y59348D01*
X233490Y59376D01*
Y59387D01*
X233488Y59396D01*
Y59406D01*
Y59411D01*
Y59415D01*
Y59417D01*
X233490Y59457D01*
X233496Y59494D01*
X233503Y59526D01*
X233510Y59554D01*
X233518Y59576D01*
X233525Y59593D01*
X233531Y59602D01*
X233533Y59605D01*
X233551Y59633D01*
X233572Y59657D01*
X233594Y59678D01*
X233614Y59694D01*
X233634Y59709D01*
X233649Y59718D01*
X233660Y59724D01*
X233662Y59726D01*
X233664D01*
X233642Y59741D01*
X233620Y59757D01*
X233603Y59774D01*
X233588Y59791D01*
X233575Y59805D01*
X233568Y59817D01*
X233562Y59824D01*
X233560Y59828D01*
X233547Y59854D01*
X233538Y59881D01*
X233531Y59907D01*
X233527Y59931D01*
X233523Y59954D01*
X233522Y59970D01*
Y59981D01*
Y59983D01*
Y59985D01*
Y60009D01*
X233525Y60033D01*
X233534Y60076D01*
X233547Y60115D01*
X233560Y60148D01*
X233575Y60174D01*
X233583Y60185D01*
X233588Y60194D01*
X233594Y60202D01*
X233597Y60207D01*
X233599Y60209D01*
X233601Y60211D01*
X233616Y60228D01*
X233633Y60242D01*
X233651Y60255D01*
X233670Y60267D01*
X233707Y60283D01*
X233744Y60294D01*
X233777Y60300D01*
X233792Y60302D01*
X233805Y60304D01*
X233814Y60305D01*
X233829D01*
X233855Y60304D01*
D02*
G37*
G36*
X229470D02*
X229496Y60300D01*
X229520Y60292D01*
X229542Y60283D01*
X229583Y60261D01*
X229618Y60235D01*
X229646Y60207D01*
X229657Y60196D01*
X229666Y60185D01*
X229674Y60176D01*
X229679Y60168D01*
X229681Y60165D01*
X229683Y60163D01*
X229700Y60133D01*
X229713Y60100D01*
X229726Y60065D01*
X229735Y60026D01*
X229752Y59944D01*
X229763Y59863D01*
X229766Y59824D01*
X229768Y59787D01*
X229770Y59754D01*
X229772Y59726D01*
X229774Y59702D01*
Y59683D01*
Y59678D01*
Y59672D01*
Y59670D01*
Y59668D01*
X229772Y59604D01*
X229770Y59544D01*
X229764Y59489D01*
X229759Y59439D01*
X229753Y59393D01*
X229744Y59352D01*
X229737Y59317D01*
X229727Y59283D01*
X229720Y59256D01*
X229711Y59231D01*
X229703Y59213D01*
X229698Y59196D01*
X229690Y59183D01*
X229687Y59176D01*
X229685Y59170D01*
X229683Y59168D01*
X229665Y59144D01*
X229646Y59122D01*
X229626Y59104D01*
X229605Y59089D01*
X229585Y59074D01*
X229566Y59063D01*
X229546Y59054D01*
X229527Y59046D01*
X229492Y59037D01*
X229477Y59033D01*
X229465Y59031D01*
X229455D01*
X229448Y59030D01*
X229440D01*
X229413Y59031D01*
X229387Y59035D01*
X229363Y59043D01*
X229340Y59052D01*
X229300Y59074D01*
X229265Y59100D01*
X229237Y59126D01*
X229226Y59137D01*
X229216Y59148D01*
X229209Y59157D01*
X229203Y59165D01*
X229202Y59168D01*
X229200Y59170D01*
X229183Y59200D01*
X229168Y59233D01*
X229157Y59268D01*
X229146Y59307D01*
X229129Y59391D01*
X229118Y59472D01*
X229115Y59511D01*
X229113Y59548D01*
X229109Y59580D01*
Y59609D01*
X229107Y59633D01*
Y59652D01*
Y59657D01*
Y59663D01*
Y59665D01*
Y59667D01*
X229109Y59731D01*
X229111Y59789D01*
X229116Y59844D01*
X229122Y59893D01*
X229129Y59939D01*
X229137Y59980D01*
X229144Y60015D01*
X229153Y60048D01*
X229163Y60076D01*
X229170Y60100D01*
X229178Y60118D01*
X229185Y60135D01*
X229190Y60148D01*
X229196Y60155D01*
X229198Y60161D01*
X229200Y60163D01*
X229218Y60189D01*
X229237Y60209D01*
X229257Y60230D01*
X229278Y60246D01*
X229298Y60259D01*
X229316Y60270D01*
X229337Y60279D01*
X229355Y60287D01*
X229390Y60298D01*
X229405Y60302D01*
X229418Y60304D01*
X229427Y60305D01*
X229442D01*
X229470Y60304D01*
D02*
G37*
G36*
X234934Y59633D02*
X234775Y59605D01*
X234762Y59622D01*
X234749Y59635D01*
X234736Y59648D01*
X234723Y59657D01*
X234697Y59674D01*
X234673Y59685D01*
X234653Y59691D01*
X234638Y59694D01*
X234627Y59696D01*
X234623D01*
X234599Y59694D01*
X234579Y59687D01*
X234558Y59678D01*
X234544Y59668D01*
X234531Y59657D01*
X234521Y59648D01*
X234516Y59641D01*
X234514Y59639D01*
X234499Y59615D01*
X234488Y59589D01*
X234481Y59559D01*
X234475Y59531D01*
X234471Y59506D01*
X234470Y59485D01*
Y59476D01*
Y59470D01*
Y59467D01*
Y59465D01*
X234471Y59422D01*
X234477Y59383D01*
X234484Y59352D01*
X234492Y59326D01*
X234499Y59307D01*
X234507Y59293D01*
X234512Y59285D01*
X234514Y59281D01*
X234531Y59261D01*
X234547Y59248D01*
X234566Y59237D01*
X234583Y59230D01*
X234595Y59226D01*
X234607Y59224D01*
X234616Y59222D01*
X234618D01*
X234636Y59224D01*
X234653Y59230D01*
X234670Y59237D01*
X234682Y59246D01*
X234694Y59254D01*
X234703Y59261D01*
X234708Y59267D01*
X234710Y59268D01*
X234725Y59287D01*
X234736Y59309D01*
X234745Y59330D01*
X234751Y59350D01*
X234755Y59368D01*
X234758Y59385D01*
X234760Y59394D01*
Y59398D01*
X234957Y59372D01*
X234947Y59315D01*
X234940Y59287D01*
X234932Y59263D01*
X234923Y59241D01*
X234914Y59220D01*
X234905Y59200D01*
X234895Y59183D01*
X234886Y59168D01*
X234877Y59156D01*
X234870Y59144D01*
X234862Y59135D01*
X234857Y59128D01*
X234851Y59122D01*
X234849Y59120D01*
X234847Y59119D01*
X234829Y59104D01*
X234810Y59089D01*
X234773Y59067D01*
X234734Y59052D01*
X234699Y59041D01*
X234668Y59035D01*
X234653Y59031D01*
X234642D01*
X234633Y59030D01*
X234620D01*
X234588Y59031D01*
X234560Y59035D01*
X234533Y59043D01*
X234508Y59052D01*
X234484Y59061D01*
X234464Y59072D01*
X234444Y59085D01*
X234427Y59098D01*
X234412Y59111D01*
X234397Y59124D01*
X234386Y59135D01*
X234377Y59144D01*
X234370Y59154D01*
X234364Y59161D01*
X234362Y59165D01*
X234360Y59167D01*
X234344Y59193D01*
X234329Y59220D01*
X234318Y59246D01*
X234307Y59272D01*
X234290Y59324D01*
X234279Y59370D01*
X234275Y59393D01*
X234273Y59411D01*
X234270Y59428D01*
Y59443D01*
X234268Y59454D01*
Y59463D01*
Y59468D01*
Y59470D01*
X234270Y59507D01*
X234271Y59543D01*
X234277Y59574D01*
X234284Y59605D01*
X234292Y59633D01*
X234301Y59661D01*
X234312Y59685D01*
X234321Y59707D01*
X234331Y59726D01*
X234342Y59743D01*
X234351Y59757D01*
X234358Y59770D01*
X234366Y59780D01*
X234370Y59787D01*
X234373Y59791D01*
X234375Y59793D01*
X234392Y59809D01*
X234408Y59824D01*
X234425Y59837D01*
X234444Y59848D01*
X234479Y59865D01*
X234510Y59878D01*
X234540Y59883D01*
X234551Y59885D01*
X234562Y59887D01*
X234571Y59889D01*
X234583D01*
X234608Y59887D01*
X234633Y59881D01*
X234655Y59876D01*
X234675Y59868D01*
X234694Y59859D01*
X234707Y59854D01*
X234714Y59848D01*
X234718Y59846D01*
X234684Y60061D01*
X234314D01*
Y60285D01*
X234834D01*
X234934Y59633D01*
D02*
G37*
G36*
X232255Y60304D02*
X232281Y60302D01*
X232327Y60291D01*
X232368Y60278D01*
X232401Y60261D01*
X232429Y60244D01*
X232438Y60235D01*
X232448Y60230D01*
X232455Y60224D01*
X232461Y60218D01*
X232462Y60217D01*
X232464Y60215D01*
X232481Y60196D01*
X232494Y60178D01*
X232518Y60133D01*
X232536Y60087D01*
X232549Y60042D01*
X232555Y60020D01*
X232561Y60000D01*
X232562Y59981D01*
X232566Y59967D01*
X232568Y59954D01*
Y59944D01*
X232570Y59937D01*
Y59935D01*
X232373Y59909D01*
X232370Y59944D01*
X232364Y59974D01*
X232357Y60000D01*
X232348Y60022D01*
X232336Y60042D01*
X232325Y60057D01*
X232312Y60070D01*
X232299Y60081D01*
X232286Y60089D01*
X232275Y60094D01*
X232253Y60102D01*
X232246Y60104D01*
X232238Y60105D01*
X232233D01*
X232212Y60104D01*
X232192Y60098D01*
X232175Y60092D01*
X232162Y60085D01*
X232151Y60076D01*
X232144Y60070D01*
X232138Y60065D01*
X232136Y60063D01*
X232124Y60046D01*
X232114Y60026D01*
X232109Y60005D01*
X232103Y59985D01*
X232101Y59967D01*
X232099Y59952D01*
Y59943D01*
Y59941D01*
Y59939D01*
X232101Y59911D01*
X232107Y59883D01*
X232114Y59857D01*
X232122Y59835D01*
X232129Y59815D01*
X232136Y59800D01*
X232142Y59791D01*
X232144Y59787D01*
X232151Y59776D01*
X232161Y59763D01*
X232183Y59733D01*
X232209Y59702D01*
X232236Y59668D01*
X232262Y59637D01*
X232273Y59622D01*
X232285Y59611D01*
X232292Y59602D01*
X232299Y59594D01*
X232303Y59589D01*
X232305Y59587D01*
X232335Y59554D01*
X232361Y59520D01*
X232386Y59491D01*
X232409Y59463D01*
X232429Y59435D01*
X232446Y59411D01*
X232462Y59389D01*
X232475Y59368D01*
X232488Y59350D01*
X232499Y59335D01*
X232507Y59320D01*
X232514Y59309D01*
X232520Y59300D01*
X232522Y59294D01*
X232525Y59291D01*
Y59289D01*
X232544Y59246D01*
X232559Y59204D01*
X232572Y59163D01*
X232579Y59128D01*
X232585Y59096D01*
X232588Y59083D01*
X232590Y59072D01*
Y59063D01*
X232592Y59056D01*
Y59052D01*
Y59050D01*
X231901D01*
Y59272D01*
X232294D01*
X232281Y59296D01*
X232268Y59317D01*
X232262Y59324D01*
X232257Y59331D01*
X232255Y59335D01*
X232253Y59337D01*
X232240Y59354D01*
X232223Y59374D01*
X232203Y59396D01*
X232183Y59420D01*
X232164Y59443D01*
X232148Y59461D01*
X232142Y59468D01*
X232136Y59474D01*
X232135Y59476D01*
X232133Y59478D01*
X232098Y59518D01*
X232068Y59556D01*
X232042Y59587D01*
X232022Y59615D01*
X232007Y59635D01*
X231996Y59652D01*
X231990Y59661D01*
X231988Y59665D01*
X231974Y59693D01*
X231959Y59718D01*
X231948Y59743D01*
X231938Y59765D01*
X231933Y59783D01*
X231927Y59796D01*
X231924Y59805D01*
Y59809D01*
X231916Y59837D01*
X231911Y59863D01*
X231907Y59889D01*
X231903Y59911D01*
Y59931D01*
X231901Y59946D01*
Y59955D01*
Y59959D01*
Y59985D01*
X231905Y60009D01*
X231914Y60054D01*
X231927Y60094D01*
X231942Y60130D01*
X231959Y60159D01*
X231966Y60172D01*
X231972Y60181D01*
X231977Y60189D01*
X231981Y60194D01*
X231983Y60198D01*
X231985Y60200D01*
X232001Y60218D01*
X232018Y60235D01*
X232036Y60248D01*
X232057Y60261D01*
X232077Y60272D01*
X232098Y60279D01*
X232136Y60292D01*
X232174Y60300D01*
X232188Y60302D01*
X232203Y60304D01*
X232214Y60305D01*
X232229D01*
X232255Y60304D01*
D02*
G37*
G36*
X231438Y60265D02*
X231457Y60228D01*
X231477Y60194D01*
X231498Y60167D01*
X231516Y60142D01*
X231531Y60124D01*
X231542Y60113D01*
X231544Y60111D01*
X231546Y60109D01*
X231579Y60080D01*
X231611Y60055D01*
X231638Y60035D01*
X231664Y60018D01*
X231687Y60007D01*
X231701Y59998D01*
X231712Y59994D01*
X231714Y59992D01*
X231716D01*
Y59774D01*
X231664Y59798D01*
X231614Y59826D01*
X231572Y59857D01*
X231535Y59887D01*
X231518Y59900D01*
X231503Y59913D01*
X231490Y59926D01*
X231481Y59935D01*
X231472Y59944D01*
X231466Y59950D01*
X231462Y59954D01*
X231461Y59955D01*
Y59050D01*
X231262D01*
Y60305D01*
X231424D01*
X231438Y60265D01*
D02*
G37*
G36*
X239525Y60320D02*
X239562Y60315D01*
X239595Y60307D01*
X239628Y60298D01*
X239658Y60285D01*
X239686Y60272D01*
X239712Y60257D01*
X239734Y60244D01*
X239754Y60230D01*
X239773Y60215D01*
X239788Y60202D01*
X239800Y60189D01*
X239810Y60180D01*
X239817Y60172D01*
X239821Y60167D01*
X239823Y60165D01*
X239849Y60130D01*
X239871Y60091D01*
X239889Y60052D01*
X239906Y60011D01*
X239921Y59968D01*
X239932Y59928D01*
X239941Y59887D01*
X239949Y59846D01*
X239954Y59809D01*
X239960Y59776D01*
X239963Y59744D01*
X239965Y59717D01*
Y59696D01*
X239967Y59680D01*
Y59668D01*
Y59667D01*
Y59665D01*
X239965Y59609D01*
X239962Y59557D01*
X239954Y59507D01*
X239945Y59461D01*
X239934Y59418D01*
X239923Y59380D01*
X239910Y59343D01*
X239895Y59311D01*
X239882Y59281D01*
X239869Y59256D01*
X239858Y59233D01*
X239847Y59217D01*
X239838Y59202D01*
X239830Y59191D01*
X239826Y59185D01*
X239825Y59183D01*
X239800Y59156D01*
X239775Y59133D01*
X239749Y59113D01*
X239721Y59094D01*
X239693Y59080D01*
X239667Y59067D01*
X239641Y59057D01*
X239615Y59048D01*
X239591Y59043D01*
X239569Y59037D01*
X239549Y59035D01*
X239532Y59031D01*
X239517D01*
X239508Y59030D01*
X239499D01*
X239469Y59031D01*
X239441Y59033D01*
X239389Y59044D01*
X239343Y59059D01*
X239323Y59069D01*
X239304Y59078D01*
X239288Y59087D01*
X239273Y59096D01*
X239260Y59104D01*
X239251Y59111D01*
X239241Y59117D01*
X239236Y59122D01*
X239232Y59124D01*
X239230Y59126D01*
X239210Y59146D01*
X239191Y59167D01*
X239160Y59215D01*
X239132Y59267D01*
X239110Y59317D01*
X239101Y59341D01*
X239093Y59363D01*
X239088Y59383D01*
X239082Y59400D01*
X239078Y59415D01*
X239075Y59426D01*
X239073Y59433D01*
Y59435D01*
X239275Y59513D01*
X239286Y59463D01*
X239301Y59422D01*
X239314Y59387D01*
X239328Y59359D01*
X239341Y59337D01*
X239352Y59322D01*
X239360Y59313D01*
X239362Y59309D01*
X239384Y59289D01*
X239408Y59272D01*
X239432Y59261D01*
X239454Y59254D01*
X239473Y59250D01*
X239489Y59248D01*
X239499Y59246D01*
X239502D01*
X239523Y59248D01*
X239541Y59250D01*
X239578Y59261D01*
X239608Y59278D01*
X239634Y59296D01*
X239656Y59313D01*
X239671Y59330D01*
X239680Y59341D01*
X239684Y59343D01*
Y59344D01*
X239695Y59365D01*
X239706Y59387D01*
X239715Y59413D01*
X239723Y59439D01*
X239736Y59494D01*
X239743Y59550D01*
X239747Y59576D01*
X239749Y59600D01*
X239751Y59622D01*
Y59641D01*
X239752Y59657D01*
Y59668D01*
Y59678D01*
Y59680D01*
Y59720D01*
X239749Y59759D01*
X239745Y59794D01*
X239741Y59826D01*
X239736Y59855D01*
X239730Y59883D01*
X239725Y59907D01*
X239717Y59928D01*
X239710Y59946D01*
X239704Y59963D01*
X239699Y59976D01*
X239693Y59987D01*
X239688Y59994D01*
X239686Y60002D01*
X239682Y60004D01*
Y60005D01*
X239667Y60024D01*
X239652Y60039D01*
X239638Y60052D01*
X239623Y60063D01*
X239591Y60081D01*
X239562Y60092D01*
X239536Y60100D01*
X239515Y60104D01*
X239508Y60105D01*
X239497D01*
X239467Y60104D01*
X239441Y60096D01*
X239419Y60089D01*
X239399Y60078D01*
X239382Y60068D01*
X239369Y60059D01*
X239362Y60052D01*
X239360Y60050D01*
X239339Y60028D01*
X239323Y60004D01*
X239308Y59978D01*
X239297Y59952D01*
X239289Y59930D01*
X239284Y59911D01*
X239282Y59904D01*
Y59898D01*
X239280Y59896D01*
Y59894D01*
X239075Y59954D01*
X239082Y59983D01*
X239091Y60011D01*
X239101Y60037D01*
X239110Y60063D01*
X239121Y60085D01*
X239130Y60105D01*
X239141Y60122D01*
X239151Y60139D01*
X239160Y60154D01*
X239169Y60167D01*
X239176Y60178D01*
X239184Y60187D01*
X239189Y60192D01*
X239193Y60198D01*
X239195Y60202D01*
X239197D01*
X239219Y60222D01*
X239243Y60241D01*
X239267Y60257D01*
X239291Y60272D01*
X239315Y60283D01*
X239339Y60292D01*
X239386Y60307D01*
X239406Y60313D01*
X239425Y60317D01*
X239441Y60318D01*
X239456Y60320D01*
X239469Y60322D01*
X239486D01*
X239525Y60320D01*
D02*
G37*
G36*
X230268Y60304D02*
X230294Y60300D01*
X230318Y60292D01*
X230340Y60283D01*
X230381Y60261D01*
X230416Y60235D01*
X230444Y60207D01*
X230455Y60196D01*
X230464Y60185D01*
X230472Y60176D01*
X230477Y60168D01*
X230479Y60165D01*
X230481Y60163D01*
X230498Y60133D01*
X230511Y60100D01*
X230524Y60065D01*
X230533Y60026D01*
X230550Y59944D01*
X230561Y59863D01*
X230564Y59824D01*
X230566Y59787D01*
X230568Y59754D01*
X230570Y59726D01*
X230572Y59702D01*
Y59683D01*
Y59678D01*
Y59672D01*
Y59670D01*
Y59668D01*
X230570Y59604D01*
X230568Y59544D01*
X230563Y59489D01*
X230557Y59439D01*
X230551Y59393D01*
X230542Y59352D01*
X230535Y59317D01*
X230526Y59283D01*
X230518Y59256D01*
X230509Y59231D01*
X230501Y59213D01*
X230496Y59196D01*
X230488Y59183D01*
X230485Y59176D01*
X230483Y59170D01*
X230481Y59168D01*
X230463Y59144D01*
X230444Y59122D01*
X230424Y59104D01*
X230403Y59089D01*
X230383Y59074D01*
X230364Y59063D01*
X230344Y59054D01*
X230326Y59046D01*
X230290Y59037D01*
X230276Y59033D01*
X230263Y59031D01*
X230253D01*
X230246Y59030D01*
X230239D01*
X230211Y59031D01*
X230185Y59035D01*
X230161Y59043D01*
X230139Y59052D01*
X230098Y59074D01*
X230063Y59100D01*
X230035Y59126D01*
X230024Y59137D01*
X230014Y59148D01*
X230007Y59157D01*
X230002Y59165D01*
X230000Y59168D01*
X229998Y59170D01*
X229981Y59200D01*
X229966Y59233D01*
X229955Y59268D01*
X229944Y59307D01*
X229927Y59391D01*
X229916Y59472D01*
X229913Y59511D01*
X229911Y59548D01*
X229907Y59580D01*
Y59609D01*
X229905Y59633D01*
Y59652D01*
Y59657D01*
Y59663D01*
Y59665D01*
Y59667D01*
X229907Y59731D01*
X229909Y59789D01*
X229914Y59844D01*
X229920Y59893D01*
X229927Y59939D01*
X229935Y59980D01*
X229942Y60015D01*
X229952Y60048D01*
X229961Y60076D01*
X229968Y60100D01*
X229976Y60118D01*
X229983Y60135D01*
X229989Y60148D01*
X229994Y60155D01*
X229996Y60161D01*
X229998Y60163D01*
X230016Y60189D01*
X230035Y60209D01*
X230055Y60230D01*
X230076Y60246D01*
X230096Y60259D01*
X230114Y60270D01*
X230135Y60279D01*
X230153Y60287D01*
X230189Y60298D01*
X230203Y60302D01*
X230216Y60304D01*
X230226Y60305D01*
X230240D01*
X230268Y60304D01*
D02*
G37*
G36*
X228646Y60265D02*
X228665Y60228D01*
X228685Y60194D01*
X228705Y60167D01*
X228724Y60142D01*
X228739Y60124D01*
X228750Y60113D01*
X228752Y60111D01*
X228753Y60109D01*
X228787Y60080D01*
X228818Y60055D01*
X228846Y60035D01*
X228872Y60018D01*
X228894Y60007D01*
X228909Y59998D01*
X228920Y59994D01*
X228922Y59992D01*
X228924D01*
Y59774D01*
X228872Y59798D01*
X228822Y59826D01*
X228779Y59857D01*
X228742Y59887D01*
X228726Y59900D01*
X228711Y59913D01*
X228698Y59926D01*
X228689Y59935D01*
X228679Y59944D01*
X228674Y59950D01*
X228670Y59954D01*
X228668Y59955D01*
Y59050D01*
X228470D01*
Y60305D01*
X228631D01*
X228646Y60265D01*
D02*
G37*
%LPC*%
G36*
X236930Y59593D02*
X236705D01*
X236667Y59591D01*
X236636Y59585D01*
X236608Y59578D01*
X236584Y59567D01*
X236564Y59554D01*
X236547Y59539D01*
X236532Y59524D01*
X236521Y59507D01*
X236512Y59491D01*
X236506Y59476D01*
X236501Y59461D01*
X236499Y59448D01*
X236497Y59439D01*
X236495Y59430D01*
Y59424D01*
Y59422D01*
X236497Y59402D01*
X236499Y59383D01*
X236505Y59367D01*
X236510Y59352D01*
X236516Y59341D01*
X236519Y59331D01*
X236523Y59326D01*
X236525Y59324D01*
X236536Y59311D01*
X236547Y59298D01*
X236558Y59291D01*
X236569Y59283D01*
X236579Y59278D01*
X236584Y59274D01*
X236590Y59272D01*
X236592D01*
X236608Y59268D01*
X236627Y59267D01*
X236666Y59263D01*
X236684Y59261D01*
X236930D01*
Y59593D01*
D02*
G37*
G36*
X233836Y60115D02*
X233827D01*
X233809Y60113D01*
X233792Y60109D01*
X233777Y60102D01*
X233764Y60096D01*
X233755Y60089D01*
X233747Y60081D01*
X233744Y60078D01*
X233742Y60076D01*
X233731Y60059D01*
X233721Y60042D01*
X233716Y60024D01*
X233710Y60007D01*
X233709Y59991D01*
X233707Y59978D01*
Y59970D01*
Y59967D01*
X233709Y59941D01*
X233712Y59918D01*
X233718Y59898D01*
X233723Y59883D01*
X233731Y59870D01*
X233736Y59861D01*
X233740Y59855D01*
X233742Y59854D01*
X233755Y59841D01*
X233770Y59831D01*
X233784Y59826D01*
X233799Y59822D01*
X233810Y59818D01*
X233820Y59817D01*
X233829D01*
X233847Y59818D01*
X233866Y59822D01*
X233881Y59828D01*
X233892Y59835D01*
X233903Y59843D01*
X233910Y59848D01*
X233914Y59852D01*
X233916Y59854D01*
X233927Y59870D01*
X233934Y59887D01*
X233942Y59907D01*
X233946Y59924D01*
X233947Y59941D01*
X233949Y59954D01*
Y59963D01*
Y59967D01*
X233947Y59991D01*
X233944Y60013D01*
X233938Y60031D01*
X233933Y60046D01*
X233927Y60057D01*
X233921Y60067D01*
X233918Y60072D01*
X233916Y60074D01*
X233901Y60087D01*
X233886Y60098D01*
X233871Y60105D01*
X233859Y60109D01*
X233846Y60113D01*
X233836Y60115D01*
D02*
G37*
G36*
X233838Y59624D02*
X233829D01*
X233807Y59622D01*
X233786Y59617D01*
X233770Y59607D01*
X233755Y59598D01*
X233744Y59587D01*
X233734Y59580D01*
X233729Y59572D01*
X233727Y59570D01*
X233712Y59550D01*
X233703Y59526D01*
X233696Y59504D01*
X233690Y59481D01*
X233686Y59461D01*
X233684Y59444D01*
Y59433D01*
Y59431D01*
Y59430D01*
X233686Y59393D01*
X233690Y59361D01*
X233697Y59335D01*
X233705Y59313D01*
X233712Y59296D01*
X233720Y59283D01*
X233723Y59276D01*
X233725Y59274D01*
X233742Y59257D01*
X233759Y59244D01*
X233775Y59235D01*
X233790Y59230D01*
X233805Y59226D01*
X233816Y59222D01*
X233825D01*
X233847Y59224D01*
X233868Y59231D01*
X233884Y59239D01*
X233899Y59250D01*
X233912Y59259D01*
X233921Y59268D01*
X233927Y59274D01*
X233929Y59276D01*
X233942Y59298D01*
X233953Y59322D01*
X233960Y59348D01*
X233964Y59374D01*
X233968Y59396D01*
X233970Y59415D01*
Y59422D01*
Y59428D01*
Y59430D01*
Y59431D01*
X233968Y59463D01*
X233964Y59491D01*
X233957Y59513D01*
X233949Y59533D01*
X233942Y59550D01*
X233934Y59561D01*
X233931Y59568D01*
X233929Y59570D01*
X233912Y59589D01*
X233896Y59602D01*
X233879Y59611D01*
X233864Y59617D01*
X233849Y59622D01*
X233838Y59624D01*
D02*
G37*
G36*
X229442Y60105D02*
X229440D01*
X229420Y60102D01*
X229402Y60092D01*
X229387Y60081D01*
X229374Y60067D01*
X229363Y60052D01*
X229355Y60041D01*
X229352Y60031D01*
X229350Y60028D01*
X229344Y60011D01*
X229339Y59991D01*
X229333Y59967D01*
X229329Y59939D01*
X229326Y59911D01*
X229324Y59880D01*
X229318Y59818D01*
Y59789D01*
X229316Y59761D01*
Y59735D01*
X229315Y59713D01*
Y59694D01*
Y59680D01*
Y59670D01*
Y59667D01*
Y59615D01*
X229316Y59568D01*
X229318Y59528D01*
X229320Y59491D01*
X229322Y59457D01*
X229326Y59428D01*
X229329Y59402D01*
X229331Y59380D01*
X229335Y59361D01*
X229339Y59344D01*
X229342Y59331D01*
X229344Y59322D01*
X229346Y59315D01*
X229348Y59309D01*
X229350Y59307D01*
Y59306D01*
X229363Y59280D01*
X229378Y59261D01*
X229392Y59248D01*
X229407Y59239D01*
X229420Y59233D01*
X229431Y59231D01*
X229439Y59230D01*
X229440D01*
X229461Y59233D01*
X229479Y59241D01*
X229496Y59254D01*
X229509Y59268D01*
X229520Y59281D01*
X229527Y59294D01*
X229531Y59302D01*
X229533Y59306D01*
X229539Y59322D01*
X229544Y59343D01*
X229548Y59367D01*
X229552Y59394D01*
X229555Y59422D01*
X229559Y59454D01*
X229563Y59515D01*
Y59544D01*
X229565Y59572D01*
Y59598D01*
X229566Y59620D01*
Y59641D01*
Y59654D01*
Y59663D01*
Y59667D01*
Y59718D01*
X229565Y59765D01*
X229563Y59805D01*
X229561Y59843D01*
X229559Y59876D01*
X229555Y59905D01*
X229553Y59931D01*
X229550Y59954D01*
X229546Y59972D01*
X229544Y59989D01*
X229540Y60002D01*
X229539Y60011D01*
X229537Y60018D01*
X229535Y60024D01*
X229533Y60028D01*
X229520Y60054D01*
X229505Y60072D01*
X229489Y60087D01*
X229474Y60096D01*
X229461Y60102D01*
X229450Y60104D01*
X229442Y60105D01*
D02*
G37*
G36*
X230240D02*
X230239D01*
X230218Y60102D01*
X230200Y60092D01*
X230185Y60081D01*
X230172Y60067D01*
X230161Y60052D01*
X230153Y60041D01*
X230150Y60031D01*
X230148Y60028D01*
X230142Y60011D01*
X230137Y59991D01*
X230131Y59967D01*
X230127Y59939D01*
X230124Y59911D01*
X230122Y59880D01*
X230116Y59818D01*
Y59789D01*
X230114Y59761D01*
Y59735D01*
X230113Y59713D01*
Y59694D01*
Y59680D01*
Y59670D01*
Y59667D01*
Y59615D01*
X230114Y59568D01*
X230116Y59528D01*
X230118Y59491D01*
X230120Y59457D01*
X230124Y59428D01*
X230127Y59402D01*
X230129Y59380D01*
X230133Y59361D01*
X230137Y59344D01*
X230140Y59331D01*
X230142Y59322D01*
X230144Y59315D01*
X230146Y59309D01*
X230148Y59307D01*
Y59306D01*
X230161Y59280D01*
X230176Y59261D01*
X230190Y59248D01*
X230205Y59239D01*
X230218Y59233D01*
X230229Y59231D01*
X230237Y59230D01*
X230239D01*
X230259Y59233D01*
X230277Y59241D01*
X230294Y59254D01*
X230307Y59268D01*
X230318Y59281D01*
X230326Y59294D01*
X230329Y59302D01*
X230331Y59306D01*
X230337Y59322D01*
X230342Y59343D01*
X230346Y59367D01*
X230350Y59394D01*
X230353Y59422D01*
X230357Y59454D01*
X230361Y59515D01*
Y59544D01*
X230363Y59572D01*
Y59598D01*
X230364Y59620D01*
Y59641D01*
Y59654D01*
Y59663D01*
Y59667D01*
Y59718D01*
X230363Y59765D01*
X230361Y59805D01*
X230359Y59843D01*
X230357Y59876D01*
X230353Y59905D01*
X230351Y59931D01*
X230348Y59954D01*
X230344Y59972D01*
X230342Y59989D01*
X230339Y60002D01*
X230337Y60011D01*
X230335Y60018D01*
X230333Y60024D01*
X230331Y60028D01*
X230318Y60054D01*
X230303Y60072D01*
X230287Y60087D01*
X230272Y60096D01*
X230259Y60102D01*
X230248Y60104D01*
X230240Y60105D01*
D02*
G37*
%LPD*%
D10*
X270000Y91500D02*
G03*
X269000Y92500I-1000J0D01*
G01*
X268500Y58000D02*
G03*
X270000Y59504I-2J1502D01*
G01*
X210000Y92500D02*
G03*
X207000Y89700I-100J-2900D01*
G01*
Y61000D02*
G03*
X210000Y58000I3000J0D01*
G01*
X207000Y61000D02*
Y89700D01*
X210000Y92500D02*
X269000D01*
X270000Y59504D02*
Y91500D01*
X210000Y58000D02*
X268500D01*
M02*
