G04 Layer_Color=8388736*
%FSLAX43Y43*%
%MOMM*%
G71*
G01*
G75*
%ADD10C,0.200*%
G04:AMPARAMS|DCode=16|XSize=2.153mm|YSize=3.603mm|CornerRadius=0.345mm|HoleSize=0mm|Usage=FLASHONLY|Rotation=270.000|XOffset=0mm|YOffset=0mm|HoleType=Round|Shape=RoundedRectangle|*
%AMROUNDEDRECTD16*
21,1,2.153,2.913,0,0,270.0*
21,1,1.462,3.603,0,0,270.0*
1,1,0.691,-1.456,-0.731*
1,1,0.691,-1.456,0.731*
1,1,0.691,1.456,0.731*
1,1,0.691,1.456,-0.731*
%
%ADD16ROUNDEDRECTD16*%
G04:AMPARAMS|DCode=17|XSize=1.113mm|YSize=1.663mm|CornerRadius=0.215mm|HoleSize=0mm|Usage=FLASHONLY|Rotation=0.000|XOffset=0mm|YOffset=0mm|HoleType=Round|Shape=RoundedRectangle|*
%AMROUNDEDRECTD17*
21,1,1.113,1.232,0,0,0.0*
21,1,0.682,1.663,0,0,0.0*
1,1,0.431,0.341,-0.616*
1,1,0.431,-0.341,-0.616*
1,1,0.431,-0.341,0.616*
1,1,0.431,0.341,0.616*
%
%ADD17ROUNDEDRECTD17*%
G04:AMPARAMS|DCode=18|XSize=0.813mm|YSize=1.553mm|CornerRadius=0.178mm|HoleSize=0mm|Usage=FLASHONLY|Rotation=90.000|XOffset=0mm|YOffset=0mm|HoleType=Round|Shape=RoundedRectangle|*
%AMROUNDEDRECTD18*
21,1,0.813,1.198,0,0,90.0*
21,1,0.458,1.553,0,0,90.0*
1,1,0.356,0.599,0.229*
1,1,0.356,0.599,-0.229*
1,1,0.356,-0.599,-0.229*
1,1,0.356,-0.599,0.229*
%
%ADD18ROUNDEDRECTD18*%
G04:AMPARAMS|DCode=19|XSize=3.223mm|YSize=3.663mm|CornerRadius=0.479mm|HoleSize=0mm|Usage=FLASHONLY|Rotation=180.000|XOffset=0mm|YOffset=0mm|HoleType=Round|Shape=RoundedRectangle|*
%AMROUNDEDRECTD19*
21,1,3.223,2.705,0,0,180.0*
21,1,2.265,3.663,0,0,180.0*
1,1,0.958,-1.133,1.353*
1,1,0.958,1.133,1.353*
1,1,0.958,1.133,-1.353*
1,1,0.958,-1.133,-1.353*
%
%ADD19ROUNDEDRECTD19*%
G04:AMPARAMS|DCode=20|XSize=2.923mm|YSize=2.473mm|CornerRadius=0.385mm|HoleSize=0mm|Usage=FLASHONLY|Rotation=270.000|XOffset=0mm|YOffset=0mm|HoleType=Round|Shape=RoundedRectangle|*
%AMROUNDEDRECTD20*
21,1,2.923,1.703,0,0,270.0*
21,1,2.152,2.473,0,0,270.0*
1,1,0.771,-0.851,-1.076*
1,1,0.771,-0.851,1.076*
1,1,0.771,0.851,1.076*
1,1,0.771,0.851,-1.076*
%
%ADD20ROUNDEDRECTD20*%
%ADD21R,2.203X2.203*%
%ADD22O,0.403X0.803*%
%ADD23O,0.803X0.403*%
G04:AMPARAMS|DCode=24|XSize=1.733mm|YSize=1.223mm|CornerRadius=0.229mm|HoleSize=0mm|Usage=FLASHONLY|Rotation=90.000|XOffset=0mm|YOffset=0mm|HoleType=Round|Shape=RoundedRectangle|*
%AMROUNDEDRECTD24*
21,1,1.733,0.765,0,0,90.0*
21,1,1.275,1.223,0,0,90.0*
1,1,0.458,0.383,0.637*
1,1,0.458,0.383,-0.637*
1,1,0.458,-0.383,-0.637*
1,1,0.458,-0.383,0.637*
%
%ADD24ROUNDEDRECTD24*%
G04:AMPARAMS|DCode=25|XSize=1.943mm|YSize=2.373mm|CornerRadius=0.319mm|HoleSize=0mm|Usage=FLASHONLY|Rotation=90.000|XOffset=0mm|YOffset=0mm|HoleType=Round|Shape=RoundedRectangle|*
%AMROUNDEDRECTD25*
21,1,1.943,1.735,0,0,90.0*
21,1,1.305,2.373,0,0,90.0*
1,1,0.638,0.868,0.652*
1,1,0.638,0.868,-0.652*
1,1,0.638,-0.868,-0.652*
1,1,0.638,-0.868,0.652*
%
%ADD25ROUNDEDRECTD25*%
G04:AMPARAMS|DCode=26|XSize=1.943mm|YSize=2.373mm|CornerRadius=0.319mm|HoleSize=0mm|Usage=FLASHONLY|Rotation=180.000|XOffset=0mm|YOffset=0mm|HoleType=Round|Shape=RoundedRectangle|*
%AMROUNDEDRECTD26*
21,1,1.943,1.735,0,0,180.0*
21,1,1.305,2.373,0,0,180.0*
1,1,0.638,-0.652,0.868*
1,1,0.638,0.652,0.868*
1,1,0.638,0.652,-0.868*
1,1,0.638,-0.652,-0.868*
%
%ADD26ROUNDEDRECTD26*%
G04:AMPARAMS|DCode=27|XSize=0.508mm|YSize=1.003mm|CornerRadius=0.178mm|HoleSize=0mm|Usage=FLASHONLY|Rotation=180.000|XOffset=0mm|YOffset=0mm|HoleType=Round|Shape=RoundedRectangle|*
%AMROUNDEDRECTD27*
21,1,0.508,0.648,0,0,180.0*
21,1,0.152,1.003,0,0,180.0*
1,1,0.356,-0.076,0.324*
1,1,0.356,0.076,0.324*
1,1,0.356,0.076,-0.324*
1,1,0.356,-0.076,-0.324*
%
%ADD27ROUNDEDRECTD27*%
G04:AMPARAMS|DCode=28|XSize=1.143mm|YSize=1.233mm|CornerRadius=0.219mm|HoleSize=0mm|Usage=FLASHONLY|Rotation=90.000|XOffset=0mm|YOffset=0mm|HoleType=Round|Shape=RoundedRectangle|*
%AMROUNDEDRECTD28*
21,1,1.143,0.795,0,0,90.0*
21,1,0.705,1.233,0,0,90.0*
1,1,0.438,0.398,0.352*
1,1,0.438,0.398,-0.352*
1,1,0.438,-0.398,-0.352*
1,1,0.438,-0.398,0.352*
%
%ADD28ROUNDEDRECTD28*%
G04:AMPARAMS|DCode=29|XSize=1.143mm|YSize=1.233mm|CornerRadius=0.219mm|HoleSize=0mm|Usage=FLASHONLY|Rotation=0.000|XOffset=0mm|YOffset=0mm|HoleType=Round|Shape=RoundedRectangle|*
%AMROUNDEDRECTD29*
21,1,1.143,0.795,0,0,0.0*
21,1,0.705,1.233,0,0,0.0*
1,1,0.438,0.352,-0.398*
1,1,0.438,-0.352,-0.398*
1,1,0.438,-0.352,0.398*
1,1,0.438,0.352,0.398*
%
%ADD29ROUNDEDRECTD29*%
G04:AMPARAMS|DCode=30|XSize=1.483mm|YSize=2.073mm|CornerRadius=0.262mm|HoleSize=0mm|Usage=FLASHONLY|Rotation=180.000|XOffset=0mm|YOffset=0mm|HoleType=Round|Shape=RoundedRectangle|*
%AMROUNDEDRECTD30*
21,1,1.483,1.550,0,0,180.0*
21,1,0.960,2.073,0,0,180.0*
1,1,0.523,-0.480,0.775*
1,1,0.523,0.480,0.775*
1,1,0.523,0.480,-0.775*
1,1,0.523,-0.480,-0.775*
%
%ADD30ROUNDEDRECTD30*%
G04:AMPARAMS|DCode=31|XSize=0.813mm|YSize=0.803mm|CornerRadius=0.177mm|HoleSize=0mm|Usage=FLASHONLY|Rotation=0.000|XOffset=0mm|YOffset=0mm|HoleType=Round|Shape=RoundedRectangle|*
%AMROUNDEDRECTD31*
21,1,0.813,0.450,0,0,0.0*
21,1,0.460,0.803,0,0,0.0*
1,1,0.353,0.230,-0.225*
1,1,0.353,-0.230,-0.225*
1,1,0.353,-0.230,0.225*
1,1,0.353,0.230,0.225*
%
%ADD31ROUNDEDRECTD31*%
G04:AMPARAMS|DCode=32|XSize=0.793mm|YSize=0.803mm|CornerRadius=0.175mm|HoleSize=0mm|Usage=FLASHONLY|Rotation=180.000|XOffset=0mm|YOffset=0mm|HoleType=Round|Shape=RoundedRectangle|*
%AMROUNDEDRECTD32*
21,1,0.793,0.453,0,0,180.0*
21,1,0.443,0.803,0,0,180.0*
1,1,0.351,-0.221,0.226*
1,1,0.351,0.221,0.226*
1,1,0.351,0.221,-0.226*
1,1,0.351,-0.221,-0.226*
%
%ADD32ROUNDEDRECTD32*%
G04:AMPARAMS|DCode=33|XSize=3.473mm|YSize=2.053mm|CornerRadius=0.333mm|HoleSize=0mm|Usage=FLASHONLY|Rotation=270.000|XOffset=0mm|YOffset=0mm|HoleType=Round|Shape=RoundedRectangle|*
%AMROUNDEDRECTD33*
21,1,3.473,1.387,0,0,270.0*
21,1,2.808,2.053,0,0,270.0*
1,1,0.666,-0.694,-1.404*
1,1,0.666,-0.694,1.404*
1,1,0.666,0.694,1.404*
1,1,0.666,0.694,-1.404*
%
%ADD33ROUNDEDRECTD33*%
G04:AMPARAMS|DCode=34|XSize=1.173mm|YSize=2.053mm|CornerRadius=0.223mm|HoleSize=0mm|Usage=FLASHONLY|Rotation=270.000|XOffset=0mm|YOffset=0mm|HoleType=Round|Shape=RoundedRectangle|*
%AMROUNDEDRECTD34*
21,1,1.173,1.607,0,0,270.0*
21,1,0.728,2.053,0,0,270.0*
1,1,0.446,-0.804,-0.364*
1,1,0.446,-0.804,0.364*
1,1,0.446,0.804,0.364*
1,1,0.446,0.804,-0.364*
%
%ADD34ROUNDEDRECTD34*%
G04:AMPARAMS|DCode=35|XSize=1.653mm|YSize=3.633mm|CornerRadius=0.283mm|HoleSize=0mm|Usage=FLASHONLY|Rotation=90.000|XOffset=0mm|YOffset=0mm|HoleType=Round|Shape=RoundedRectangle|*
%AMROUNDEDRECTD35*
21,1,1.653,3.067,0,0,90.0*
21,1,1.087,3.633,0,0,90.0*
1,1,0.566,1.534,0.544*
1,1,0.566,1.534,-0.544*
1,1,0.566,-1.534,-0.544*
1,1,0.566,-1.534,0.544*
%
%ADD35ROUNDEDRECTD35*%
G04:AMPARAMS|DCode=36|XSize=1.403mm|YSize=2.033mm|CornerRadius=0.252mm|HoleSize=0mm|Usage=FLASHONLY|Rotation=0.000|XOffset=0mm|YOffset=0mm|HoleType=Round|Shape=RoundedRectangle|*
%AMROUNDEDRECTD36*
21,1,1.403,1.530,0,0,0.0*
21,1,0.900,2.033,0,0,0.0*
1,1,0.503,0.450,-0.765*
1,1,0.503,-0.450,-0.765*
1,1,0.503,-0.450,0.765*
1,1,0.503,0.450,0.765*
%
%ADD36ROUNDEDRECTD36*%
G04:AMPARAMS|DCode=37|XSize=0.883mm|YSize=2.373mm|CornerRadius=0.187mm|HoleSize=0mm|Usage=FLASHONLY|Rotation=90.000|XOffset=0mm|YOffset=0mm|HoleType=Round|Shape=RoundedRectangle|*
%AMROUNDEDRECTD37*
21,1,0.883,2.000,0,0,90.0*
21,1,0.510,2.373,0,0,90.0*
1,1,0.373,1.000,0.255*
1,1,0.373,1.000,-0.255*
1,1,0.373,-1.000,-0.255*
1,1,0.373,-1.000,0.255*
%
%ADD37ROUNDEDRECTD37*%
%ADD38C,1.903*%
%ADD39R,1.903X1.903*%
%ADD40C,1.631*%
%ADD41R,1.631X1.631*%
%ADD42C,3.519*%
G04:AMPARAMS|DCode=43|XSize=5.103mm|YSize=2.403mm|CornerRadius=0.377mm|HoleSize=0mm|Usage=FLASHONLY|Rotation=270.000|XOffset=0mm|YOffset=0mm|HoleType=Round|Shape=RoundedRectangle|*
%AMROUNDEDRECTD43*
21,1,5.103,1.650,0,0,270.0*
21,1,4.350,2.403,0,0,270.0*
1,1,0.753,-0.825,-2.175*
1,1,0.753,-0.825,2.175*
1,1,0.753,0.825,2.175*
1,1,0.753,0.825,-2.175*
%
%ADD43ROUNDEDRECTD43*%
G04:AMPARAMS|DCode=44|XSize=4.603mm|YSize=2.403mm|CornerRadius=0.377mm|HoleSize=0mm|Usage=FLASHONLY|Rotation=270.000|XOffset=0mm|YOffset=0mm|HoleType=Round|Shape=RoundedRectangle|*
%AMROUNDEDRECTD44*
21,1,4.603,1.650,0,0,270.0*
21,1,3.850,2.403,0,0,270.0*
1,1,0.753,-0.825,-1.925*
1,1,0.753,-0.825,1.925*
1,1,0.753,0.825,1.925*
1,1,0.753,0.825,-1.925*
%
%ADD44ROUNDEDRECTD44*%
G04:AMPARAMS|DCode=45|XSize=4.603mm|YSize=2.403mm|CornerRadius=0.377mm|HoleSize=0mm|Usage=FLASHONLY|Rotation=0.000|XOffset=0mm|YOffset=0mm|HoleType=Round|Shape=RoundedRectangle|*
%AMROUNDEDRECTD45*
21,1,4.603,1.650,0,0,0.0*
21,1,3.850,2.403,0,0,0.0*
1,1,0.753,1.925,-0.825*
1,1,0.753,-1.925,-0.825*
1,1,0.753,-1.925,0.825*
1,1,0.753,1.925,0.825*
%
%ADD45ROUNDEDRECTD45*%
%ADD46C,4.203*%
%ADD47C,0.703*%
D10*
X270000Y91500D02*
G03*
X269000Y92500I-1000J0D01*
G01*
X268500Y58000D02*
G03*
X270000Y59504I-2J1502D01*
G01*
X210000Y92500D02*
G03*
X207000Y89700I-100J-2900D01*
G01*
Y61000D02*
G03*
X210000Y58000I3000J0D01*
G01*
X207000Y61000D02*
Y89700D01*
X210000Y92500D02*
X269000D01*
X270000Y59504D02*
Y91500D01*
X210000Y58000D02*
X268500D01*
D16*
X219750Y84885D02*
D03*
Y89085D02*
D03*
D17*
X209400Y89605D02*
D03*
X211350D02*
D03*
D18*
X227759Y67914D02*
D03*
X225759Y66964D02*
D03*
Y68864D02*
D03*
D19*
X249405Y85525D02*
D03*
X258700D02*
D03*
D20*
X209075Y83975D02*
D03*
X215625D02*
D03*
D21*
X242869Y74845D02*
D03*
D22*
X241619Y76795D02*
D03*
X242119D02*
D03*
X242619D02*
D03*
X243119D02*
D03*
X243619D02*
D03*
X244119D02*
D03*
Y72895D02*
D03*
X243619D02*
D03*
X243119D02*
D03*
X242619D02*
D03*
X242119D02*
D03*
X241619D02*
D03*
D23*
X244819Y76095D02*
D03*
Y75595D02*
D03*
Y75095D02*
D03*
Y74595D02*
D03*
Y74095D02*
D03*
Y73595D02*
D03*
X240919D02*
D03*
Y74095D02*
D03*
Y74595D02*
D03*
Y75095D02*
D03*
Y75595D02*
D03*
Y76095D02*
D03*
D24*
X244634Y70970D02*
D03*
X242619D02*
D03*
X244634Y78695D02*
D03*
X242619D02*
D03*
X238278Y78735D02*
D03*
X240293D02*
D03*
X248458Y67975D02*
D03*
X246443D02*
D03*
X227667Y64764D02*
D03*
X225652D02*
D03*
X225577Y61864D02*
D03*
X227592D02*
D03*
D25*
X266305Y85525D02*
D03*
X262545D02*
D03*
D26*
X223575Y85325D02*
D03*
Y89085D02*
D03*
D27*
X228005Y74363D02*
D03*
X229005D02*
D03*
Y72913D02*
D03*
X228505D02*
D03*
X228005D02*
D03*
D28*
X246310Y73495D02*
D03*
Y75095D02*
D03*
D29*
X234619Y70945D02*
D03*
X236219D02*
D03*
X234619Y77586D02*
D03*
X236219D02*
D03*
X234619Y75311D02*
D03*
X236219D02*
D03*
X234619Y73186D02*
D03*
X236219D02*
D03*
X239019Y70920D02*
D03*
X240619D02*
D03*
D30*
X265295Y76450D02*
D03*
X262295D02*
D03*
X265300Y79500D02*
D03*
X262300D02*
D03*
D31*
X251975Y71595D02*
D03*
X250975D02*
D03*
Y74800D02*
D03*
X251975D02*
D03*
X262050Y72350D02*
D03*
X263050D02*
D03*
Y74095D02*
D03*
X262050D02*
D03*
D32*
X257275Y76950D02*
D03*
X256250D02*
D03*
D33*
X240449Y64950D02*
D03*
D34*
X234351Y62639D02*
D03*
Y64950D02*
D03*
Y67261D02*
D03*
D35*
X231034Y68879D02*
D03*
Y62649D02*
D03*
D36*
X213477Y89605D02*
D03*
X216477D02*
D03*
D37*
X254295Y75405D02*
D03*
Y74135D02*
D03*
Y72865D02*
D03*
Y71595D02*
D03*
X259155Y75405D02*
D03*
Y74135D02*
D03*
Y72865D02*
D03*
Y71595D02*
D03*
D38*
X243775Y85325D02*
D03*
X233775D02*
D03*
X238775D02*
D03*
X250775Y63005D02*
D03*
Y65545D02*
D03*
X243075D02*
D03*
Y63005D02*
D03*
D39*
X228775Y85325D02*
D03*
D40*
X222305Y73813D02*
D03*
X220305D02*
D03*
Y71313D02*
D03*
D41*
X222305D02*
D03*
D42*
X217595Y78583D02*
D03*
Y66543D02*
D03*
D43*
X254775Y64050D02*
D03*
D44*
X260775D02*
D03*
D45*
X257275Y68850D02*
D03*
D46*
X266242Y89750D02*
D03*
X212500Y62500D02*
D03*
D47*
X243419Y74295D02*
D03*
X242319D02*
D03*
X243419Y75395D02*
D03*
X242319D02*
D03*
M02*
