G04 Layer_Color=16711935*
%FSLAX43Y43*%
%MOMM*%
G71*
G01*
G75*
%ADD10C,0.200*%
%ADD38C,1.903*%
%ADD39R,1.903X1.903*%
%ADD40C,1.631*%
%ADD41R,1.631X1.631*%
%ADD42C,3.519*%
G04:AMPARAMS|DCode=43|XSize=5.103mm|YSize=2.403mm|CornerRadius=0.377mm|HoleSize=0mm|Usage=FLASHONLY|Rotation=270.000|XOffset=0mm|YOffset=0mm|HoleType=Round|Shape=RoundedRectangle|*
%AMROUNDEDRECTD43*
21,1,5.103,1.650,0,0,270.0*
21,1,4.350,2.403,0,0,270.0*
1,1,0.753,-0.825,-2.175*
1,1,0.753,-0.825,2.175*
1,1,0.753,0.825,2.175*
1,1,0.753,0.825,-2.175*
%
%ADD43ROUNDEDRECTD43*%
G04:AMPARAMS|DCode=44|XSize=4.603mm|YSize=2.403mm|CornerRadius=0.377mm|HoleSize=0mm|Usage=FLASHONLY|Rotation=270.000|XOffset=0mm|YOffset=0mm|HoleType=Round|Shape=RoundedRectangle|*
%AMROUNDEDRECTD44*
21,1,4.603,1.650,0,0,270.0*
21,1,3.850,2.403,0,0,270.0*
1,1,0.753,-0.825,-1.925*
1,1,0.753,-0.825,1.925*
1,1,0.753,0.825,1.925*
1,1,0.753,0.825,-1.925*
%
%ADD44ROUNDEDRECTD44*%
G04:AMPARAMS|DCode=45|XSize=4.603mm|YSize=2.403mm|CornerRadius=0.377mm|HoleSize=0mm|Usage=FLASHONLY|Rotation=0.000|XOffset=0mm|YOffset=0mm|HoleType=Round|Shape=RoundedRectangle|*
%AMROUNDEDRECTD45*
21,1,4.603,1.650,0,0,0.0*
21,1,3.850,2.403,0,0,0.0*
1,1,0.753,1.925,-0.825*
1,1,0.753,-1.925,-0.825*
1,1,0.753,-1.925,0.825*
1,1,0.753,1.925,0.825*
%
%ADD45ROUNDEDRECTD45*%
%ADD46C,4.203*%
%ADD47C,0.703*%
D10*
X270000Y91500D02*
G03*
X269000Y92500I-1000J0D01*
G01*
X268500Y58000D02*
G03*
X270000Y59504I-2J1502D01*
G01*
X210000Y92500D02*
G03*
X207000Y89700I-100J-2900D01*
G01*
Y61000D02*
G03*
X210000Y58000I3000J0D01*
G01*
X207000Y61000D02*
Y89700D01*
X210000Y92500D02*
X269000D01*
X270000Y59504D02*
Y91500D01*
X210000Y58000D02*
X268500D01*
D38*
X243775Y85325D02*
D03*
X233775D02*
D03*
X238775D02*
D03*
X250775Y63005D02*
D03*
Y65545D02*
D03*
X243075D02*
D03*
Y63005D02*
D03*
D39*
X228775Y85325D02*
D03*
D40*
X222305Y73813D02*
D03*
X220305D02*
D03*
Y71313D02*
D03*
D41*
X222305D02*
D03*
D42*
X217595Y78583D02*
D03*
Y66543D02*
D03*
D43*
X254775Y64050D02*
D03*
D44*
X260775D02*
D03*
D45*
X257275Y68850D02*
D03*
D46*
X266242Y89750D02*
D03*
X212500Y62500D02*
D03*
D47*
X243419Y74295D02*
D03*
X242319D02*
D03*
X243419Y75395D02*
D03*
X242319D02*
D03*
M02*
